<svg width="40" height="40" viewBox="0 0 40 40" fill="none" xmlns="http://www.w3.org/2000/svg">
<path d="M26.3536 14.6464C26.1583 14.4512 25.8417 14.4512 25.6464 14.6464C25.4512 14.8417 25.4512 15.1583 25.6464 15.3536L26.3536 14.6464ZM31 20L31.3535 20.3536L31.7071 20L31.3536 19.6464L31 20ZM25.6465 24.6462C25.4512 24.8414 25.4512 25.158 25.6464 25.3533C25.8417 25.5485 26.1583 25.5485 26.3535 25.3533L25.6465 24.6462ZM13 19.5C12.7239 19.5 12.5 19.7239 12.5 20C12.5 20.2761 12.7239 20.5 13 20.5L13 19.5ZM25.6464 15.3536L30.6464 20.3536L31.3536 19.6464L26.3536 14.6464L25.6464 15.3536ZM31 19.5L13 19.5L13 20.5L31 20.5L31 19.5ZM30.6465 19.6464L28.1465 22.1463L28.8535 22.8534L31.3535 20.3536L30.6465 19.6464ZM28.1465 22.1463L25.6465 24.6462L26.3535 25.3533L28.8535 22.8534L28.1465 22.1463Z" fill="black"/>
<path d="M8.5 14.5C8.22386 14.5 8 14.7239 8 15C8 15.2761 8.22386 15.5 8.5 15.5V14.5ZM8.5 24.5C8.22386 24.5 8 24.7239 8 25C8 25.2761 8.22386 25.5 8.5 25.5V24.5ZM8.5 15.5H9.5V14.5H8.5V15.5ZM12 18V22H13V18H12ZM9.5 24.5H8.5V25.5H9.5V24.5ZM12 22C12 23.3807 10.8807 24.5 9.5 24.5V25.5C11.433 25.5 13 23.933 13 22H12ZM9.5 15.5C10.8807 15.5 12 16.6193 12 18H13C13 16.067 11.433 14.5 9.5 14.5V15.5Z" fill="black"/>
</svg>
