<svg width="40" height="40" viewBox="0 0 40 40" fill="none" xmlns="http://www.w3.org/2000/svg">
<path d="M27 20.0618H31.5M27 20.0618V17M27 20.0618V23M13 20.0618H8.5M13 20.0618V17M13 20.0618V23M27 17V17C27 15.6193 25.8814 14.5 24.5007 14.5C22.0856 14.5 18.3817 14.5 15.4978 14.5C14.1171 14.5 13 15.6193 13 17V17M27 17L28.6213 15.3787C29.1839 14.8161 29.947 14.5 30.7426 14.5H31.5M27 23V23C27 24.3807 25.8807 25.5 24.5 25.5H15.5C14.1193 25.5 13 24.3807 13 23V23M27 23L28.6213 24.6213C29.1839 25.1839 29.947 25.5 30.7426 25.5H31.5M13 17L11.3787 15.3787C10.8161 14.8161 10.053 14.5 9.25736 14.5H8.5M13 23L11.3787 24.6213C10.8161 25.1839 10.053 25.5 9.25736 25.5H8.5" stroke="black" stroke-linecap="round"/>
</svg>
