<svg width="40" height="40" viewBox="0 0 40 40" fill="none" xmlns="http://www.w3.org/2000/svg">
<path d="M26.3536 25.3538C26.1583 25.549 25.8417 25.549 25.6465 25.3537C25.4512 25.1585 25.4512 24.8419 25.6465 24.6466L26.3536 25.3538ZM31 20.0005L31.3536 19.6469L31.7071 20.0005L31.3535 20.3541L31 20.0005ZM25.6465 15.354C25.4512 15.1588 25.4512 14.8422 25.6465 14.6469C25.8417 14.4517 26.1583 14.4517 26.3536 14.6469L25.6465 15.354ZM8.9069 30.7911C8.7464 31.0158 8.43412 31.0679 8.20941 30.9074C7.98471 30.7469 7.93266 30.4346 8.09316 30.2099L8.9069 30.7911ZM28.5 17.5003L28.8536 17.1468L28.8536 17.1468L28.5 17.5003ZM16 20.0005L15.5931 19.7099L15.7427 19.5005L16 19.5005L16 20.0005ZM25.6465 24.6466L30.6465 19.6469L31.3535 20.3541L26.3536 25.3538L25.6465 24.6466ZM30.6464 20.354L28.1465 17.8539L28.8536 17.1468L31.3536 19.6469L30.6464 20.354ZM28.1465 17.8539L25.6465 15.354L26.3536 14.6469L28.8536 17.1468L28.1465 17.8539ZM31 20.5005L16 20.5005L16 19.5005L31 19.5005L31 20.5005ZM16.4069 20.2911L8.9069 30.7911L8.09316 30.2099L15.5931 19.7099L16.4069 20.2911Z" fill="black"/>
</svg>
