<svg width="40" height="40" viewBox="0 0 40 40" fill="none" xmlns="http://www.w3.org/2000/svg">
<path d="M20 25.5L20 29.5C20 30.0523 20.4477 30.5 21 30.5L30.5 30.5C31.0523 30.5 31.5 30.0523 31.5 29.5L31.5 21C31.5 20.4477 31.0523 20 30.5 20L22.625 20M20 25.5L18.5 25.5M20 25.5L20 23.5M24.5 20L24.5 12.1122M10.5 9.5L9.5 9.5C8.94772 9.5 8.5 9.94772 8.5 10.5L8.5 12.1667M10.5 9.5L14.5 9.5M10.5 9.5L8.5 12.1667M14.25 25.5L18.5 25.5M14.25 25.5L10.5 25.5M14.25 25.5L24.5 12.1122M14.5 9.5L18.5 9.5M14.5 9.5L8.5 17.5M18.5 25.5L20 23.5M18.5 9.5L22.5 9.5M18.5 9.5L8.5 22.8333M22.5 9.5L23.5 9.5C24.0523 9.5 24.5 9.94772 24.5 10.5L24.5 12.1122M22.5 9.5L10.5 25.5M8.5 17.5L8.5 22.8333M8.5 17.5L8.5 12.1667M10.5 25.5L9.5 25.5C8.94771 25.5 8.5 25.0523 8.5 24.5L8.5 22.8333M24.5 17.5L22.625 20M22.625 20L21.125 20L21 20C20.4477 20 20 20.4477 20 21L20 23.5" stroke="black"/>
</svg>
