<svg width="40" height="40" viewBox="0 0 40 40" fill="none" xmlns="http://www.w3.org/2000/svg">
<path d="M20 25.5L10.5 25.5L9.5 25.5C8.94771 25.5 8.5 25.0523 8.5 24.5L8.5 22.8333L8.5 17.5L8.5 12.1667L8.5 10.5C8.5 9.94772 8.94772 9.5 9.5 9.5L10.5 9.5L14.5 9.5L18.5 9.5L22.5 9.5L23.5 9.5C24.0523 9.5 24.5 9.94772 24.5 10.5L24.5 12.1122L24.5 20M20 25.5L20 23.5M20 25.5L20 28.5465M22.625 20L21.125 20L21 20C20.4477 20 20 20.4477 20 21L20 23.5M22.625 20L26.5625 20M22.625 20L20 23.5M26.5 30.5L30.5 30.5C31.0523 30.5 31.5 30.0523 31.5 29.5L31.5 23.625M26.5 30.5L31.5 23.625M26.5 30.5L22.625 30.5M31.5 23.625L31.5 21C31.5 20.4477 31.0523 20 30.5 20V20M30.5 20L22.625 30.5M30.5 20L26.5625 20M22.625 30.5L21 30.5C20.4477 30.5 20 30.0523 20 29.5L20 28.5465M26.5625 20L20 28.5465" stroke="black"/>
<path d="M0.5 36V4C0.5 2.067 2.067 0.5 4 0.5H36C37.933 0.5 39.5 2.067 39.5 4V36C39.5 37.933 37.933 39.5 36 39.5H4C2.067 39.5 0.5 37.933 0.5 36Z" stroke="black"/>
</svg>
