<svg width="40" height="40" viewBox="0 0 40 40" fill="none" xmlns="http://www.w3.org/2000/svg">
<path d="M13.6464 25.3533C13.8417 25.5485 14.1583 25.5485 14.3535 25.3533C14.5488 25.158 14.5488 24.8414 14.3535 24.6461L13.6464 25.3533ZM9 20L8.64643 19.6465L8.2929 20L8.64646 20.3536L9 20ZM14.3535 15.3535C14.5488 15.1583 14.5488 14.8417 14.3535 14.6464C14.1583 14.4512 13.8417 14.4512 13.6464 14.6464L14.3535 15.3535ZM31.0931 30.7906C31.2536 31.0153 31.5659 31.0674 31.7906 30.9069C32.0153 30.7464 32.0673 30.4341 31.9068 30.2094L31.0931 30.7906ZM11.5 17.4998L11.1464 17.1463L11.1464 17.1463L11.5 17.4998ZM24 20L24.4069 19.7094L24.2573 19.5L24 19.5L24 20ZM14.3535 24.6461L9.35354 19.6464L8.64646 20.3536L13.6464 25.3533L14.3535 24.6461ZM9.35357 20.3535L11.8535 17.8534L11.1464 17.1463L8.64643 19.6465L9.35357 20.3535ZM11.8535 17.8534L14.3535 15.3535L13.6464 14.6464L11.1464 17.1463L11.8535 17.8534ZM9 20.5L24 20.5L24 19.5L9 19.5L9 20.5ZM23.5931 20.2906L31.0931 30.7906L31.9068 30.2094L24.4069 19.7094L23.5931 20.2906Z" fill="black"/>
<path d="M0.5 36V4C0.5 2.067 2.067 0.5 4 0.5H36C37.933 0.5 39.5 2.067 39.5 4V36C39.5 37.933 37.933 39.5 36 39.5H4C2.067 39.5 0.5 37.933 0.5 36Z" stroke="black"/>
</svg>
