<svg width="40" height="40" viewBox="0 0 40 40" fill="none" xmlns="http://www.w3.org/2000/svg">
<path d="M31.5 9.5L24.5 15.5M8.47607 30.5L15.5 24.5M8.5 9.5L15.5 15.5M31.5 30.5L24.5 24.5" stroke="black" stroke-linecap="round"/>
<path d="M14.5 18C14.5 16.067 16.067 14.5 18 14.5H22C23.933 14.5 25.5 16.067 25.5 18V22C25.5 23.933 23.933 25.5 22 25.5H18C16.067 25.5 14.5 23.933 14.5 22V18Z" stroke="black"/>
<path d="M0.5 36V4C0.5 2.067 2.067 0.5 4 0.5H36C37.933 0.5 39.5 2.067 39.5 4V36C39.5 37.933 37.933 39.5 36 39.5H4C2.067 39.5 0.5 37.933 0.5 36Z" stroke="black"/>
</svg>
