<svg width="40" height="40" viewBox="0 0 40 40" fill="none" xmlns="http://www.w3.org/2000/svg">
<path d="M21.5 11.5H9.5C8.94772 11.5 8.5 11.9477 8.5 12.5C8.5 13.0523 8.94772 13.5 9.5 13.5H21.5C22.0523 13.5 22.5 13.0523 22.5 12.5C22.5 11.9477 22.0523 11.5 21.5 11.5Z" stroke="black"/>
<path d="M26.5 16.5H9.5C8.94772 16.5 8.5 16.9477 8.5 17.5C8.5 18.0523 8.94771 18.5 9.5 18.5H26.5C27.0523 18.5 27.5 18.0523 27.5 17.5C27.5 16.9477 27.0523 16.5 26.5 16.5Z" stroke="black"/>
<path d="M30.5 21.5H9.5C8.94772 21.5 8.5 21.9477 8.5 22.5C8.5 23.0523 8.94772 23.5 9.5 23.5H30.5C31.0523 23.5 31.5 23.0523 31.5 22.5C31.5 21.9477 31.0523 21.5 30.5 21.5Z" stroke="black"/>
<path d="M24.5 26.5H9.5C8.94772 26.5 8.5 26.9477 8.5 27.5C8.5 28.0523 8.94772 28.5 9.5 28.5H24.5C25.0523 28.5 25.5 28.0523 25.5 27.5C25.5 26.9477 25.0523 26.5 24.5 26.5Z" stroke="black"/>
<path d="M0.5 36V4C0.5 2.067 2.067 0.5 4 0.5H36C37.933 0.5 39.5 2.067 39.5 4V36C39.5 37.933 37.933 39.5 36 39.5H4C2.067 39.5 0.5 37.933 0.5 36Z" stroke="black"/>
</svg>
