<svg width="40" height="14" viewBox="0 0 40 14" fill="none" xmlns="http://www.w3.org/2000/svg">
<path d="M24.5 10C24.7761 10 25 9.77614 25 9.5C25 9.22386 24.7761 9 24.5 9V10ZM15.5 9C15.2239 9 15 9.22386 15 9.5C15 9.77614 15.2239 10 15.5 10V9ZM19.5 7.5C19.5 7.77614 19.7239 8 20 8C20.2761 8 20.5 7.77614 20.5 7.5H19.5ZM16.5 4C16.2239 4 16 4.22386 16 4.5C16 4.77614 16.2239 5 16.5 5V4ZM23.5 5C23.7761 5 24 4.77614 24 4.5C24 4.22386 23.7761 4 23.5 4V5ZM24.5 9H15.5V10H24.5V9ZM20.5 7.5V4.5H19.5V7.5H20.5ZM20 4H16.5V5H20V4ZM20 5H23.5V4H20V5Z" fill="black"/>
</svg>
