<svg width="196" height="40" viewBox="0 0 196 40" fill="none" xmlns="http://www.w3.org/2000/svg">
<path d="M156 0H192C194.209 0 196 1.79086 196 4V36C196 38.2091 194.209 40 192 40H156V0Z" fill="#C4C4C4"/>
<path d="M177.5 11.5H165.5C164.948 11.5 164.5 11.9477 164.5 12.5C164.5 13.0523 164.948 13.5 165.5 13.5H177.5C178.052 13.5 178.5 13.0523 178.5 12.5C178.5 11.9477 178.052 11.5 177.5 11.5Z" stroke="black"/>
<path d="M182.5 16.5H165.5C164.948 16.5 164.5 16.9477 164.5 17.5C164.5 18.0523 164.948 18.5 165.5 18.5H182.5C183.052 18.5 183.5 18.0523 183.5 17.5C183.5 16.9477 183.052 16.5 182.5 16.5Z" stroke="black"/>
<path d="M186.5 21.5H165.5C164.948 21.5 164.5 21.9477 164.5 22.5C164.5 23.0523 164.948 23.5 165.5 23.5H186.5C187.052 23.5 187.5 23.0523 187.5 22.5C187.5 21.9477 187.052 21.5 186.5 21.5Z" stroke="black"/>
<path d="M180.5 26.5H165.5C164.948 26.5 164.5 26.9477 164.5 27.5C164.5 28.0523 164.948 28.5 165.5 28.5H180.5C181.052 28.5 181.5 28.0523 181.5 27.5C181.5 26.9477 181.052 26.5 180.5 26.5Z" stroke="black"/>
<path d="M156 0V-1H155V0H156ZM156 40H155V41H156V40ZM156 1H192V-1H156V1ZM195 4V36H197V4H195ZM192 39H156V41H192V39ZM157 40V0H155V40H157ZM195 36C195 37.6569 193.657 39 192 39V41C194.761 41 197 38.7614 197 36H195ZM192 1C193.657 1 195 2.34315 195 4H197C197 1.23858 194.761 -1 192 -1V1Z" fill="black"/>
<path d="M117 0H157V40H117V0Z" fill="#C4C4C4"/>
<path d="M125.5 26.5V13.5C125.5 11.2909 127.291 9.5 129.5 9.5H144.5C146.709 9.5 148.5 11.2909 148.5 13.5V23.5M125.5 26.5V26.5C125.5 28.7091 127.291 30.5 129.5 30.5H144.5C146.709 30.5 148.5 28.7091 148.5 26.5V23.5M125.5 26.5C125.5 26.171 127.754 24.016 129.482 22.4265C130.05 21.9039 130.928 21.9279 131.474 22.4737V22.4737C132.041 23.0405 132.959 23.0405 133.526 22.4737L137.672 18.3284C139.234 16.7663 141.766 16.7663 143.328 18.3284L148.5 23.5" stroke="black"/>
<path d="M117 0V-1H116V0H117ZM157 0H158V-1H157V0ZM157 40V41H158V40H157ZM117 40H116V41H117V40ZM117 1H157V-1H117V1ZM156 0V40H158V0H156ZM157 39H117V41H157V39ZM118 40V0H116V40H118Z" fill="black"/>
<path d="M78 0H118V40H78V0Z" fill="#C4C4C4"/>
<path d="M104.354 14.6464C104.158 14.4512 103.842 14.4512 103.646 14.6464C103.451 14.8417 103.451 15.1583 103.646 15.3536L104.354 14.6464ZM109 20L109.354 20.3536L109.707 20L109.354 19.6464L109 20ZM103.646 24.6462C103.451 24.8414 103.451 25.158 103.646 25.3533C103.842 25.5485 104.158 25.5485 104.354 25.3533L103.646 24.6462ZM91 19.5C90.7239 19.5 90.5 19.7239 90.5 20C90.5 20.2761 90.7239 20.5 91 20.5L91 19.5ZM103.646 15.3536L108.646 20.3536L109.354 19.6464L104.354 14.6464L103.646 15.3536ZM109 19.5L91 19.5L91 20.5L109 20.5L109 19.5ZM108.646 19.6464L106.146 22.1463L106.854 22.8534L109.354 20.3536L108.646 19.6464ZM106.146 22.1463L103.646 24.6462L104.354 25.3533L106.854 22.8534L106.146 22.1463Z" fill="black"/>
<path d="M86.5 14.5C86.2239 14.5 86 14.7239 86 15C86 15.2761 86.2239 15.5 86.5 15.5V14.5ZM86.5 24.5C86.2239 24.5 86 24.7239 86 25C86 25.2761 86.2239 25.5 86.5 25.5V24.5ZM86.5 15.5H87.5V14.5H86.5V15.5ZM90 18V22H91V18H90ZM87.5 24.5H86.5V25.5H87.5V24.5ZM90 22C90 23.3807 88.8807 24.5 87.5 24.5V25.5C89.433 25.5 91 23.933 91 22H90ZM87.5 15.5C88.8807 15.5 90 16.6193 90 18H91C91 16.067 89.433 14.5 87.5 14.5V15.5Z" fill="black"/>
<path d="M78 0V-1H77V0H78ZM118 0H119V-1H118V0ZM118 40V41H119V40H118ZM78 40H77V41H78V40ZM78 1H118V-1H78V1ZM117 0V40H119V0H117ZM118 39H78V41H118V39ZM79 40V0H77V40H79Z" fill="black"/>
<path d="M39 0H79V40H39V0Z" fill="#C4C4C4"/>
<path d="M50.4982 14.5H67.5056C69.1625 14.5 70.5 15.8431 70.5 17.5V20.5V22.5C70.5 24.1569 69.1569 25.5 67.5 25.5H50.5C48.8431 25.5 47.5 24.1569 47.5 22.5V17.5C47.5 15.8431 48.8413 14.5 50.4982 14.5Z" stroke="black"/>
<path d="M39 0V-1H38V0H39ZM79 0H80V-1H79V0ZM79 40V41H80V40H79ZM39 40H38V41H39V40ZM39 1H79V-1H39V1ZM78 0V40H80V0H78ZM79 39H39V41H79V39ZM40 40V0H38V40H40Z" fill="black"/>
<path d="M0 4C0 1.79086 1.79086 0 4 0H40V40H4C1.79086 40 0 38.2091 0 36V4Z" fill="#C4C4C4"/>
<path d="M27 20.0618H31.5M27 20.0618V17M27 20.0618V23M13 20.0618H8.5M13 20.0618V17M13 20.0618V23M27 17V17C27 15.6193 25.8814 14.5 24.5007 14.5C22.0856 14.5 18.3817 14.5 15.4978 14.5C14.1171 14.5 13 15.6193 13 17V17M27 17L28.6213 15.3787C29.1839 14.8161 29.947 14.5 30.7426 14.5H31.5M27 23V23C27 24.3807 25.8807 25.5 24.5 25.5H15.5C14.1193 25.5 13 24.3807 13 23V23M27 23L28.6213 24.6213C29.1839 25.1839 29.947 25.5 30.7426 25.5H31.5M13 17L11.3787 15.3787C10.8161 14.8161 10.053 14.5 9.25736 14.5H8.5M13 23L11.3787 24.6213C10.8161 25.1839 10.053 25.5 9.25736 25.5H8.5" stroke="black" stroke-linecap="round"/>
<path d="M40 0H41V-1H40V0ZM40 40V41H41V40H40ZM4 1H40V-1H4V1ZM39 0V40H41V0H39ZM40 39H4V41H40V39ZM1 36V4H-1V36H1ZM4 39C2.34315 39 1 37.6569 1 36H-1C-1 38.7614 1.23858 41 4 41V39ZM4 -1C1.23858 -1 -1 1.23858 -1 4H1C1 2.34315 2.34315 1 4 1V-1Z" fill="black"/>
</svg>
