<svg width="40" height="40" viewBox="0 0 40 40" fill="none" xmlns="http://www.w3.org/2000/svg">
<path d="M20.5 9.5C20.5 9.22386 20.2761 9 20 9C19.7239 9 19.5 9.22386 19.5 9.5H20.5ZM20 24.5L19.6464 24.8536L20 25.2071L20.3536 24.8536L20 24.5ZM25.3536 19.8536C25.5488 19.6583 25.5488 19.3417 25.3536 19.1464C25.1583 18.9512 24.8417 18.9512 24.6464 19.1464L25.3536 19.8536ZM15.3536 19.1464C15.1583 18.9512 14.8417 18.9512 14.6464 19.1464C14.4512 19.3417 14.4512 19.6583 14.6464 19.8536L15.3536 19.1464ZM31.4999 29.4999L31.9999 29.4999L31.4999 29.4999ZM31.4998 28.4999L30.9998 28.5L31.4998 28.4999ZM20.5 27H9.49999V28H20.5V27ZM20.5 28L30.4998 28V27L20.5 27V28ZM30.9998 28.5L30.9999 29.5L31.9999 29.4999L31.9998 28.4999L30.9998 28.5ZM30.4999 30L9.49998 30L9.49998 31L30.4999 31V30ZM8.99998 29.5L8.99999 28.5L7.99999 28.5L7.99998 29.5L8.99998 29.5ZM19.5 9.5V24.5H20.5V9.5H19.5ZM20.3536 24.8536L25.3536 19.8536L24.6464 19.1464L19.6464 24.1464L20.3536 24.8536ZM14.6464 19.8536L19.6464 24.8536L20.3536 24.1464L15.3536 19.1464L14.6464 19.8536ZM9.49998 30C9.22384 30 8.99998 29.7761 8.99998 29.5L7.99998 29.5C7.99997 30.3284 8.67155 31 9.49998 31L9.49998 30ZM30.9999 29.5C30.9999 29.7761 30.7761 30 30.4999 30V31C31.3284 31 32 30.3283 31.9999 29.4999L30.9999 29.5ZM30.4998 28C30.7759 28 30.9998 28.2238 30.9998 28.5L31.9998 28.4999C31.9997 27.6715 31.3282 27 30.4998 27V28ZM9.49999 27C8.67157 27 8 27.6716 7.99999 28.5L8.99999 28.5C8.99999 28.2239 9.22385 28 9.49999 28V27Z" fill="black"/>
</svg>
