<svg width="40" height="40" viewBox="0 0 40 40" fill="none" xmlns="http://www.w3.org/2000/svg">
<path d="M18.253 28.8596C18.4483 28.6643 18.4483 28.3477 18.253 28.1525C18.0578 27.9572 17.7412 27.9572 17.5459 28.1525L18.253 28.8596ZM22.4957 18.253C22.691 18.4482 23.0075 18.4482 23.2028 18.253C23.3981 18.0577 23.3981 17.7411 23.2028 17.5459L22.4957 18.253ZM11.182 24.6169L17.5459 18.253L16.8388 17.5459L10.4749 23.9098L11.182 24.6169ZM16.8368 30.2758L18.253 28.8596L17.5459 28.1525L16.1297 29.5687L16.8368 30.2758ZM17.5459 18.253C18.9128 16.8861 21.1289 16.8861 22.4957 18.253L23.2028 17.5459C21.4454 15.7885 18.5962 15.7885 16.8388 17.5459L17.5459 18.253ZM11.182 29.5667C9.81515 28.1998 9.81515 25.9838 11.182 24.6169L10.4749 23.9098C8.71751 25.6672 8.71751 28.5164 10.4749 30.2738L11.182 29.5667ZM10.4749 30.2738C12.2319 32.0308 15.0792 32.0335 16.8368 30.2758L16.1297 29.5687C14.7632 30.9352 12.5491 30.9338 11.182 29.5667L10.4749 30.2738Z" fill="black"/>
<path d="M22.4957 11.889C22.3005 12.0842 22.3005 12.4008 22.4957 12.5961C22.691 12.7913 23.0076 12.7913 23.2028 12.5961L22.4957 11.889ZM18.2531 22.4956C18.0578 22.3003 17.7412 22.3003 17.546 22.4956C17.3507 22.6908 17.3507 23.0074 17.546 23.2027L18.2531 22.4956ZM29.5668 16.1316L23.2028 22.4956L23.9099 23.2027L30.2739 16.8387L29.5668 16.1316ZM23.9119 10.4728L22.4957 11.889L23.2028 12.5961L24.619 11.1799L23.9119 10.4728ZM23.2028 22.4956C21.836 23.8624 19.6199 23.8624 18.2531 22.4956L17.546 23.2027C19.3033 24.96 22.1526 24.96 23.9099 23.2027L23.2028 22.4956ZM29.5668 11.1819C30.9336 12.5487 30.9336 14.7648 29.5668 16.1316L30.2739 16.8387C32.0313 15.0814 32.0313 12.2321 30.2739 10.4748L29.5668 11.1819ZM30.2739 10.4748C28.5169 8.71772 25.6696 8.71508 23.9119 10.4728L24.619 11.1799C25.9856 9.81336 28.1996 9.8147 29.5668 11.1819L30.2739 10.4748Z" fill="black"/>
</svg>
