<svg width="40" height="40" viewBox="0 0 40 40" fill="none" xmlns="http://www.w3.org/2000/svg">
<path d="M14.6464 14.1464C14.4511 14.3417 14.4511 14.6583 14.6464 14.8536C14.8417 15.0488 15.1583 15.0488 15.3535 14.8536L14.6464 14.1464ZM20 9.5L20.3535 9.14646L20 8.79288L19.6464 9.14645L20 9.5ZM24.6461 14.8535C24.8414 15.0488 25.158 15.0488 25.3532 14.8536C25.5485 14.6583 25.5485 14.3417 25.3533 14.1465L24.6461 14.8535ZM19.5 24.5C19.5 24.7761 19.7238 25 20 25C20.2761 25 20.5 24.7761 20.5 24.5H19.5ZM31.4998 29.4999L31.9998 29.4999L31.4998 29.4999ZM31.4997 28.4999L30.9997 28.5L31.4997 28.4999ZM15.3535 14.8536L20.3535 9.85355L19.6464 9.14645L14.6464 14.1464L15.3535 14.8536ZM18.5001 27H9.50002V28H18.5001V27ZM18.5001 28H30.4997V27H18.5001V28ZM19.6464 9.85354L24.6461 14.8535L25.3533 14.1465L20.3535 9.14646L19.6464 9.85354ZM30.9997 28.5L30.9998 29.5L31.9998 29.4999L31.9997 28.4999L30.9997 28.5ZM30.4998 30H9.50001V31H30.4998V30ZM9.00001 29.5L9.00002 28.5L8.00002 28.5L8.00001 29.5L9.00001 29.5ZM19.5 9.5V24.5H20.5V9.5H19.5ZM9.50001 30C9.22387 30 9.00001 29.7761 9.00001 29.5L8.00001 29.5C8 30.3284 8.67158 31 9.50001 31V30ZM30.9998 29.5C30.9999 29.7761 30.776 30 30.4998 30V31C31.3283 31 31.9999 30.3283 31.9998 29.4999L30.9998 29.5ZM30.4997 28C30.7759 28 30.9997 28.2238 30.9997 28.5L31.9997 28.4999C31.9997 27.6715 31.3281 27 30.4997 27V28ZM9.50002 27C8.6716 27 8.00003 27.6716 8.00002 28.5L9.00002 28.5C9.00002 28.2239 9.22388 28 9.50002 28V27Z" fill="black"/>
</svg>
