<svg width="40" height="40" viewBox="0 0 40 40" fill="none" xmlns="http://www.w3.org/2000/svg">
<path d="M26.8536 14.6464C26.6583 14.4512 26.3417 14.4512 26.1464 14.6464C25.9512 14.8417 25.9512 15.1583 26.1464 15.3536L26.8536 14.6464ZM31.5 20L31.8535 20.3536L32.2071 20L31.8536 19.6464L31.5 20ZM26.1465 24.6462C25.9512 24.8414 25.9512 25.158 26.1464 25.3533C26.3417 25.5485 26.6583 25.5485 26.8535 25.3533L26.1465 24.6462ZM8.5 19.5C8.22386 19.5 8 19.7239 8 20C8 20.2761 8.22386 20.5 8.5 20.5L8.5 19.5ZM26.1464 15.3536L31.1464 20.3536L31.8536 19.6464L26.8536 14.6464L26.1464 15.3536ZM31.5 19.5L8.5 19.5L8.5 20.5L31.5 20.5L31.5 19.5ZM31.1465 19.6464L28.6465 22.1463L29.3535 22.8534L31.8535 20.3536L31.1465 19.6464ZM28.6465 22.1463L26.1465 24.6462L26.8535 25.3533L29.3535 22.8534L28.6465 22.1463Z" fill="black"/>
</svg>
