<svg width="40" height="17" viewBox="0 0 40 17" fill="none" xmlns="http://www.w3.org/2000/svg">
<path d="M8.5 6.50006C8.22386 6.50006 8 6.72391 8 7.00006C8 7.2762 8.22386 7.50006 8.5 7.50006L8.5 6.50006ZM8.5 3.00003C8.22386 3.00003 8 3.22389 8 3.50003C8 3.77617 8.22386 4.00003 8.5 4.00003V3.00003ZM8.5 10C8.22386 10 8 10.2239 8 10.5C8 10.7761 8.22386 11 8.5 11V10ZM31.5 4.00003C31.7761 4.00003 32 3.77617 32 3.50003C32 3.22389 31.7761 3.00003 31.5 3.00003L31.5 4.00003ZM31.5 7.5C31.7761 7.5 32 7.27614 32 7C32 6.72385 31.7761 6.5 31.5 6.5L31.5 7.5ZM31.5 11C31.7761 11 32 10.7761 32 10.5C32 10.2239 31.7761 10 31.5 10V11ZM27.4388 3.97956L27.114 3.59945L27.4388 3.97956ZM12.5478 10.0617L12.2355 9.6713L12.5478 10.0617ZM27.4388 10.0205L27.114 10.4006L27.4388 10.0205ZM16.4981 3.5L16.4981 4L16.4981 3.5ZM23.503 3.00002C21.514 3.00002 18.4843 3.00001 16.4981 3L16.4981 4C18.4843 4.00001 21.514 4.00002 23.503 4.00002L23.503 3.00002ZM16.5 11L23.5 11L23.5 9.99999L16.5 9.99998L16.5 11ZM14.5 6.50005L8.5 6.50006L8.5 7.50006L14.5 7.50005V6.50005ZM14 5.5V7.00005H15V5.5H14ZM14.8123 5.10956L12.8602 3.54784L12.2355 4.32872L14.1877 5.89044L14.8123 5.10956ZM11.2984 3.00003H8.5V4.00003H11.2984V3.00003ZM14 7.00005V8.5H15V7.00005H14ZM14.1877 8.10957L12.2355 9.6713L12.8602 10.4522L14.8123 8.89043L14.1877 8.10957ZM11.2984 10H8.5V11H11.2984V10ZM25 5.50003V5.63642H26V5.50003H25ZM25 5.63642V7.00005H26V5.63642H25ZM25 7.00005V8.36369H26V7.00005H25ZM25 8.36369V8.49999H26V8.36369H25ZM25.8248 6.01653L27.7637 4.35967L27.114 3.59945L25.1752 5.25631L25.8248 6.01653ZM28.7382 4.00001L31.5 4.00003L31.5 3.00003L28.7382 3.00001L28.7382 4.00001ZM25.5 7.50005L31.5 7.5L31.5 6.5L25.5 6.50005L25.5 7.50005ZM25.1752 8.74381L27.114 10.4006L27.7637 9.64036L25.8248 7.98357L25.1752 8.74381ZM28.7381 11H31.5V10H28.7381V11ZM27.7637 4.35967C28.0353 4.12754 28.3809 4 28.7382 4.00001L28.7382 3.00001C28.1427 3 27.5667 3.21257 27.114 3.59945L27.7637 4.35967ZM12.2355 9.6713C11.9695 9.88408 11.639 10 11.2984 10V11C11.8661 11 12.4169 10.8068 12.8602 10.4522L12.2355 9.6713ZM23.5 11C24.8807 11 26 9.88071 26 8.49999H25C25 9.32842 24.3284 10 23.5 9.99999L23.5 11ZM27.114 10.4006C27.5667 10.7874 28.1427 11 28.7381 11V10C28.3808 10 28.0353 9.87247 27.7637 9.64036L27.114 10.4006ZM12.8602 3.54784C12.4169 3.19323 11.8661 3.00003 11.2984 3.00003V4.00003C11.639 4.00003 11.9695 4.11595 12.2355 4.32872L12.8602 3.54784ZM16.5 9.99998C15.6716 9.99998 15 9.32841 15 8.5H14C14 9.8807 15.1193 11 16.5 11L16.5 9.99998ZM16.4981 3C15.1168 3 14 4.11991 14 5.5H15C15 4.67095 15.6703 4 16.4981 4L16.4981 3ZM23.503 4.00002C24.3305 4.00002 25 4.67061 25 5.50003H26C26 4.12031 24.8847 3.00002 23.503 3.00002L23.503 4.00002Z" fill="black"/>
</svg>
