<svg width="30" height="30" viewBox="0 0 40 40" fill="none" xmlns="http://www.w3.org/2000/svg">
<path d="M8.5 26.5V13.5C8.5 11.2909 10.2909 9.5 12.5 9.5H27.5C29.7091 9.5 31.5 11.2909 31.5 13.5V23.5M8.5 26.5V26.5C8.5 28.7091 10.2909 30.5 12.5 30.5H27.5C29.7091 30.5 31.5 28.7091 31.5 26.5V23.5M8.5 26.5C8.5 26.171 10.7545 24.016 12.4823 22.4265C13.0504 21.9039 13.9279 21.9279 14.4737 22.4737V22.4737C15.0405 23.0405 15.9595 23.0405 16.5263 22.4737L20.6716 18.3284C22.2337 16.7663 24.7663 16.7663 26.3284 18.3284L31.5 23.5" stroke="black"/>
</svg>
