<svg width="40" height="17" viewBox="0 0 40 17" fill="none" xmlns="http://www.w3.org/2000/svg">
<path d="M20.5 9.09524V4.5C20.5 3.94772 20.9477 3.5 21.5 3.5H30.5C31.0523 3.5 31.5 3.94772 31.5 4.5V7.95238M20.5 9.09524V9.5C20.5 10.0523 20.9477 10.5 21.5 10.5H30.5C31.0523 10.5 31.5 10.0523 31.5 9.5V7.95238M20.5 9.09524C20.5 8.96977 21.4825 8.147 22.2341 7.54129C22.4881 7.33657 22.8519 7.34644 23.0973 7.56144V7.56144C23.3527 7.7852 23.7343 7.7852 23.9897 7.56145L26.4398 5.41467C26.7825 5.11442 27.2848 5.08375 27.6614 5.34008L31.5 7.95238" stroke="black"/>
</svg>
