<svg width="40" height="17" viewBox="0 0 40 17" fill="none" xmlns="http://www.w3.org/2000/svg">
<path d="M8.5 6.50006C8.22386 6.50006 8 6.72391 8 7.00006C8 7.2762 8.22386 7.50006 8.5 7.50006L8.5 6.50006ZM8.5 3.00003C8.22386 3.00003 8 3.22389 8 3.50003C8 3.77617 8.22386 4.00003 8.5 4.00003V3.00003ZM8.5 10C8.22386 10 8 10.2239 8 10.5C8 10.7761 8.22386 11 8.5 11V10ZM12.5478 10.0617L12.2355 9.6713L12.5478 10.0617ZM29.5 10.5V11V10.5ZM29.5069 3.00002C26.234 3.00002 19.7697 3.00001 16.4977 3L16.4977 4C19.7697 4.00001 26.234 4.00002 29.5069 4.00002L29.5069 3.00002ZM16.5 11L29.5 11L29.5 10L16.5 9.99998L16.5 11ZM14.5 6.50005L8.5 6.50006L8.5 7.50006L14.5 7.50005V6.50005ZM14 5.5V7.00005H15V5.5H14ZM14.8123 5.10956L12.8602 3.54784L12.2355 4.32872L14.1877 5.89044L14.8123 5.10956ZM11.2984 3.00003H8.5V4.00003H11.2984V3.00003ZM14 7.00005V8.5H15V7.00005H14ZM14.1877 8.10957L12.2355 9.6713L12.8602 10.4522L14.8123 8.89043L14.1877 8.10957ZM11.2984 10H8.5V11H11.2984V10ZM31 5.50003V5.63642H32V5.50003H31ZM31 5.63642V7.00005H32V5.63642H31ZM31 7.00005V8.36369H32V7.00005H31ZM31 8.36369V8.49999H32V8.36369H31ZM12.2355 9.6713C11.9695 9.88408 11.639 10 11.2984 10V11C11.8661 11 12.4169 10.8068 12.8602 10.4522L12.2355 9.6713ZM29.5 11C30.8807 11 32 9.88071 32 8.49999H31C31 9.32842 30.3284 10 29.5 10L29.5 11ZM12.8602 3.54784C12.4169 3.19323 11.8661 3.00003 11.2984 3.00003V4.00003C11.639 4.00003 11.9695 4.11595 12.2355 4.32872L12.8602 3.54784ZM16.5 9.99998C15.6716 9.99997 15 9.32841 15 8.5H14C14 9.8807 15.1193 11 16.5 11L16.5 9.99998ZM16.4977 3C15.1162 3 14 4.12004 14 5.5H15C15 4.67082 15.67 4 16.4977 4L16.4977 3ZM29.5069 4.00002C30.3331 4.00002 31 4.66935 31 5.50003H32C32 4.12157 30.8898 3.00003 29.5069 3.00002L29.5069 4.00002Z" fill="black"/>
</svg>
