<svg width="40" height="17" viewBox="0 0 40 17" fill="none" xmlns="http://www.w3.org/2000/svg">
<path d="M31.5 4.00003C31.7761 4.00003 32 3.77617 32 3.50003C32 3.22389 31.7761 3.00003 31.5 3.00003L31.5 4.00003ZM31.5 7.5C31.7761 7.5 32 7.27614 32 7C32 6.72385 31.7761 6.5 31.5 6.5L31.5 7.5ZM31.5 11C31.7761 11 32 10.7761 32 10.5C32 10.2239 31.7761 10 31.5 10V11ZM23.5 10.5L23.5 10L23.5 10.5ZM27.4388 10.0205L27.114 10.4006L27.4388 10.0205ZM10.5 10.5L10.5 11L10.5 10.5ZM27.4388 3.97956L27.7637 4.35967L27.4388 3.97956ZM23.5069 3.50002V3.00002V3.50002ZM23.5069 3.00002C20.234 3.00002 13.7697 3.00001 10.4977 3L10.4977 4C13.7697 4.00001 20.234 4.00002 23.5069 4.00002L23.5069 3.00002ZM10.5 11L23.5 11L23.5 10L10.5 9.99998L10.5 11ZM7.99999 5.5V7.00005H8.99999V5.5H7.99999ZM7.99999 7.00005V8.5H8.99999V7.00005H7.99999ZM25 5.50003V5.63642H26V5.50003H25ZM25 5.63642V7.00005H26V5.63642H25ZM25 7.00005V8.36369H26V7.00005H25ZM25 8.36369V8.49999H26V8.36369H25ZM25.8248 6.01653L27.7637 4.35967L27.114 3.59945L25.1752 5.25631L25.8248 6.01653ZM28.7382 4.00001L31.5 4.00003L31.5 3.00003L28.7382 3.00001L28.7382 4.00001ZM25.5 7.50005L31.5 7.5L31.5 6.5L25.5 6.50005L25.5 7.50005ZM25.1752 8.74381L27.114 10.4006L27.7637 9.64036L25.8248 7.98357L25.1752 8.74381ZM28.7381 11H31.5V10H28.7381V11ZM23.5 11C24.8807 11 26 9.88071 26 8.49999H25C25 9.32842 24.3284 10 23.5 10L23.5 11ZM27.114 10.4006C27.5667 10.7874 28.1427 11 28.7381 11V10C28.3808 10 28.0353 9.87247 27.7637 9.64036L27.114 10.4006ZM10.5 9.99998C9.67155 9.99997 8.99999 9.32841 8.99999 8.5H7.99999C7.99999 9.8807 9.11927 11 10.5 11L10.5 9.99998ZM10.4977 3C9.11623 3 7.99999 4.12004 7.99999 5.5H8.99999C8.99999 4.67082 9.67001 4 10.4977 4L10.4977 3ZM27.7637 4.35967C28.0353 4.12754 28.3809 4 28.7382 4.00001L28.7382 3.00001C28.1427 3 27.5667 3.21257 27.114 3.59945L27.7637 4.35967ZM23.5069 4.00002C24.3331 4.00002 25 4.66935 25 5.50003H26C26 4.12157 24.8898 3.00003 23.5069 3.00002L23.5069 4.00002Z" fill="black"/>
</svg>
