<svg width="40" height="17" viewBox="0 0 38 17" fill="none" xmlns="http://www.w3.org/2000/svg">
<path d="M14.5 9.09524V4.5C14.5 3.94772 14.9477 3.5 15.5 3.5H24.5C25.0523 3.5 25.5 3.94772 25.5 4.5V7.95238M14.5 9.09524V9.5C14.5 10.0523 14.9477 10.5 15.5 10.5H24.5C25.0523 10.5 25.5 10.0523 25.5 9.5V7.95238M14.5 9.09524C14.5 8.96977 15.4825 8.147 16.2341 7.54129C16.4881 7.33657 16.8519 7.34644 17.0973 7.56144V7.56144C17.3527 7.7852 17.7343 7.7852 17.9897 7.56145L20.4398 5.41467C20.7825 5.11442 21.2848 5.08375 21.6614 5.34008L25.5 7.95238" stroke="black"/>
</svg>
