<svg width="40" height="40" viewBox="0 0 40 40" fill="none" xmlns="http://www.w3.org/2000/svg">
<path d="M0.5 4C0.5 2.067 2.067 0.5 4 0.5H36C37.933 0.5 39.5 2.067 39.5 4V36C39.5 37.933 37.933 39.5 36 39.5H4C2.067 39.5 0.5 37.933 0.5 36V4Z" stroke="black"/>
<path d="M11.7892 15.4321C11.7892 15.7083 12.0131 15.9321 12.2892 15.9321C12.5653 15.9321 12.7892 15.7083 12.7892 15.4321H11.7892ZM27.7102 23.5L28.1805 23.3303L28.0613 23H27.7102V23.5ZM12.2892 23.5V23H11.9381L11.8189 23.3303L12.2892 23.5ZM11.5674 25.5L12.0377 25.6697L11.5674 25.5ZM10.2463 29.1605L9.77602 28.9908L10.2463 29.1605ZM29.7531 29.1605L30.2234 28.9908L29.7531 29.1605ZM31.4998 16.5L31.9998 16.5L31.4998 16.5ZM31.5 24.5L31 24.5L31.5 24.5ZM12.7892 15.4321V10.5H11.7892V15.4321H12.7892ZM13.2892 10H26.7102V9H13.2892V10ZM7.99985 16.5L7.99979 24.5L8.99979 24.5L8.99985 16.5L7.99985 16.5ZM32 24.5L31.9998 16.5L30.9998 16.5L31 24.5L32 24.5ZM9.49985 16H27.7102V15H9.49985V16ZM27.7102 16H30.4998V15H27.7102V16ZM27.2102 10.5V15.5H28.2102V10.5H27.2102ZM27.7102 23H12.2892V24H27.7102V23ZM11.1869 31H28.8125V30H11.1869V31ZM30.2234 28.9908L28.9023 25.3303L27.9617 25.6697L29.2828 29.3303L30.2234 28.9908ZM28.9023 25.3303L28.1805 23.3303L27.2399 23.6697L27.9617 25.6697L28.9023 25.3303ZM30.5 25H28.432V26H30.5V25ZM11.8189 23.3303L11.0971 25.3303L12.0377 25.6697L12.7595 23.6697L11.8189 23.3303ZM11.0971 25.3303L9.77602 28.9908L10.7166 29.3303L12.0377 25.6697L11.0971 25.3303ZM9.49979 26H11.5674V25H9.49979V26ZM11.1869 30C10.8405 30 10.599 29.6562 10.7166 29.3303L9.77602 28.9908C9.42318 29.9685 10.1475 31 11.1869 31V30ZM28.8125 31C29.8519 31 30.5763 29.9685 30.2234 28.9908L29.2828 29.3303C29.4004 29.6562 29.159 30 28.8125 30V31ZM31.9998 16.5C31.9997 15.6715 31.3282 15 30.4998 15V16C30.7759 16 30.9997 16.2238 30.9998 16.5L31.9998 16.5ZM31 24.5C31 24.7761 30.7761 25 30.5 25V26C31.3284 26 32 25.3284 32 24.5L31 24.5ZM7.99979 24.5C7.99978 25.3284 8.67136 26 9.49979 26V25C9.22365 25 8.99979 24.7761 8.99979 24.5L7.99979 24.5ZM8.99985 16.5C8.99985 16.2239 9.22371 16 9.49985 16V15C8.67143 15 7.99986 15.6716 7.99985 16.5L8.99985 16.5ZM26.7102 10C26.9864 10 27.2102 10.2239 27.2102 10.5H28.2102C28.2102 9.67157 27.5387 9 26.7102 9V10ZM12.7892 10.5C12.7892 10.2239 13.0131 10 13.2892 10V9C12.4608 9 11.7892 9.67157 11.7892 10.5H12.7892Z" fill="black"/>
</svg>
