<svg width="30" height="30" viewBox="0 0 40 40" fill="none" xmlns="http://www.w3.org/2000/svg">
<path d="M14.6462 14.1464C14.4509 14.3417 14.4509 14.6583 14.6462 14.8536C14.8414 15.0488 15.158 15.0488 15.3533 14.8536L14.6462 14.1464ZM19.9997 9.5L20.3533 9.14646L19.9997 8.79288L19.6462 9.14645L19.9997 9.5ZM19.4997 25.5C19.4997 25.7761 19.7236 26 19.9997 26C20.2759 26 20.4997 25.7761 20.4997 25.5H19.4997ZM24.6459 14.8535C24.8411 15.0488 25.1577 15.0488 25.353 14.8536C25.5483 14.6583 25.5483 14.3417 25.353 14.1465L24.6459 14.8535ZM14.4997 21C14.7759 21 14.9997 20.7761 14.9997 20.5C14.9997 20.2239 14.7759 20 14.4997 20V21ZM31.5 29.5L32 29.5L32 29.5L31.5 29.5ZM31.4998 21.5L30.9998 21.5L30.9998 21.5L31.4998 21.5ZM24.4995 20C24.2233 20 23.9995 20.2239 23.9995 20.5C23.9995 20.7761 24.2233 21 24.4995 21V20ZM15.3533 14.8536L20.3533 9.85355L19.6462 9.14645L14.6462 14.1464L15.3533 14.8536ZM19.4997 9.5V25.5H20.4997V9.5H19.4997ZM19.6462 9.85354L24.6459 14.8535L25.353 14.1465L20.3533 9.14646L19.6462 9.85354ZM14.4997 20H9.49973V21H14.4997V20ZM7.99973 21.5V29.5H8.99973V21.5H7.99973ZM9.49973 31H30.5V30H9.49973V31ZM32 29.5L31.9998 21.5L30.9998 21.5L31 29.5L32 29.5ZM30.4998 20H24.4995V21H30.4998V20ZM31.9998 21.5C31.9997 20.6715 31.3282 20 30.4998 20V21C30.7759 21 30.9997 21.2238 30.9998 21.5L31.9998 21.5ZM30.5 31C31.3284 31 32 30.3284 32 29.5L31 29.5C31 29.7761 30.7761 30 30.5 30V31ZM7.99973 29.5C7.99973 30.3284 8.6713 31 9.49973 31V30C9.22358 30 8.99973 29.7761 8.99973 29.5H7.99973ZM9.49973 20C8.6713 20 7.99973 20.6716 7.99973 21.5H8.99973C8.99973 21.2239 9.22358 21 9.49973 21V20Z" fill="black"/>
</svg>
