<svg width="30" height="30" viewBox="0 0 40 40" fill="none" xmlns="http://www.w3.org/2000/svg">
<path d="M15.0001 13C14.724 13 14.5001 13.2239 14.5001 13.5C14.5001 13.7761 14.724 14 15.0001 14V13ZM15.0001 29.9999C14.7239 29.9999 14.5001 30.2238 14.5001 30.4999C14.5001 30.7761 14.7239 30.9999 15.0001 30.9999V29.9999ZM25.0001 30.9999C25.2762 30.9999 25.5001 30.7761 25.5001 30.4999C25.5001 30.2238 25.2762 29.9999 25.0001 29.9999V30.9999ZM20.0004 14.5L19.5004 14.5L20.0004 14.5ZM15.9997 10H19V9H15.9997V10ZM19 11H15.9997V12H19V11ZM15.0001 14H19.0004V13H15.0001V14ZM19.5004 14.5L19.5003 30.4999H20.5003L20.5004 14.5L19.5004 14.5ZM20.0003 29.9999H15.0001V30.9999H20.0003V29.9999ZM20.0003 30.9999H25.0001V29.9999H20.0003V30.9999ZM15.9997 11C15.7236 11 15.4997 10.7761 15.4997 10.5H14.4997C14.4997 11.3284 15.1713 12 15.9997 12V11ZM19.5 10.5C19.5 10.7761 19.2761 11 19 11V12C19.8284 12 20.5 11.3284 20.5 10.5H19.5ZM19 10C19.2761 10 19.5 10.2239 19.5 10.5H20.5C20.5 9.67157 19.8284 9 19 9V10ZM19.0004 14C19.2765 14 19.5004 14.2239 19.5004 14.5L20.5004 14.5C20.5004 13.6716 19.8288 13 19.0004 13V14ZM15.9997 9C15.1713 9 14.4997 9.67157 14.4997 10.5H15.4997C15.4997 10.2239 15.7236 10 15.9997 10V9Z" fill="black"/>
<path d="M0.5 4C0.5 2.067 2.067 0.5 4 0.5H36C37.933 0.5 39.5 2.067 39.5 4V36C39.5 37.933 37.933 39.5 36 39.5H4C2.067 39.5 0.5 37.933 0.5 36V4Z" stroke="black"/>
</svg>
